<svg width="24" height="24" viewBox="0 0 24 24">
<path d="M9.76497 5.29526C10.0661 5.01085 10.0797 4.53617 9.79526 4.23503C9.51085 3.93389 9.03617 3.92033 8.73503 4.20474L4.23503 8.45474C4.08502 8.59642 4 8.79365 4 9C4 9.20635 4.08502 9.40358 4.23503 9.54526L8.73503 13.7953C9.03617 14.0797 9.51085 14.0661 9.79526 13.765C10.0797 13.4638 10.0661 12.9891 9.76497 12.7047L6.63642 9.75H15.25C17.0449 9.75 18.5 11.2051 18.5 13V19.25C18.5 19.6642 18.8358 20 19.25 20C19.6642 20 20 19.6642 20 19.25V13C20 10.3766 17.8734 8.25 15.25 8.25H6.63642L9.76497 5.29526Z" fill="#000000" />
</svg>
