<svg width="24" height="24" viewBox="0 0 24 24">
<path d="M15.7603 10.7996C15.4568 11.0814 14.9823 11.0639 14.7004 10.7603L12 7.85221L9.29959 10.7603C9.01774 11.0639 8.54319 11.0814 8.23966 10.7996C7.93613 10.5177 7.91855 10.0432 8.2004 9.73966L11.4504 6.23966C11.5923 6.08684 11.7914 6 12 6C12.2085 6 12.4077 6.08684 12.5496 6.23966L15.7996 9.73966C16.0814 10.0432 16.0639 10.5177 15.7603 10.7996Z" />
<path d="M8.23966 13.2004C8.5432 12.9186 9.01775 12.9361 9.2996 13.2397L12 16.1478L14.7004 13.2397C14.9823 12.9361 15.4568 12.9186 15.7603 13.2004C16.0639 13.4823 16.0815 13.9568 15.7996 14.2603L12.5496 17.7603C12.4077 17.9132 12.2086 18 12 18C11.7915 18 11.5923 17.9132 11.4504 17.7603L8.20041 14.2603C7.91856 13.9568 7.93613 13.4823 8.23966 13.2004Z" />
</svg>
