<svg width="24" height="24" viewBox="0 0 24 24">
<path d="M17.7803 7.28033C18.0732 6.98744 18.0732 6.51256 17.7803 6.21967C17.4874 5.92678 17.0126 5.92678 16.7197 6.21967L12 10.9393L7.28033 6.21967C6.98744 5.92678 6.51256 5.92678 6.21967 6.21967C5.92678 6.51256 5.92678 6.98744 6.21967 7.28033L10.9393 12L6.21967 16.7197C5.92678 17.0126 5.92678 17.4874 6.21967 17.7803C6.51256 18.0732 6.98744 18.0732 7.28033 17.7803L12 13.0607L16.7197 17.7803C17.0126 18.0732 17.4874 18.0732 17.7803 17.7803C18.0732 17.4874 18.0732 17.0126 17.7803 16.7197L13.0607 12L17.7803 7.28033Z" />
</svg>
