<svg width="24" height="24" viewBox="0 0 24 24">
<path d="M6.75 5.5C6.05964 5.5 5.5 6.05964 5.5 6.75V17.25C5.5 17.9404 6.05964 18.5 6.75 18.5H17.25C17.9404 18.5 18.5 17.9404 18.5 17.25V14.75C18.5 14.3358 18.8358 14 19.25 14C19.6642 14 20 14.3358 20 14.75V17.25C20 18.7688 18.7688 20 17.25 20H6.75C5.23122 20 4 18.7688 4 17.25V6.75C4 5.23122 5.23122 4 6.75 4H9.25C9.66421 4 10 4.33579 10 4.75C10 5.16421 9.66421 5.5 9.25 5.5H6.75ZM18.5 6.56066V9.25C18.5 9.66421 18.8358 10 19.25 10C19.6642 10 20 9.66421 20 9.25V4.75C20 4.33579 19.6642 4 19.25 4H14.75C14.3358 4 14 4.33579 14 4.75C14 5.16421 14.3358 5.5 14.75 5.5H17.4393L11.2197 11.7197C10.9268 12.0126 10.9268 12.4874 11.2197 12.7803C11.5126 13.0732 11.9874 13.0732 12.2803 12.7803L18.5 6.56066Z" fill="#000000" />
</svg>
