<svg width="24" height="24" viewBox="0 0 24 24">
<path d="M8 4C8.21759 4 8.41354 4.09266 8.55054 4.24068L11.7996 7.73966C12.0815 8.04319 12.0639 8.51774 11.7603 8.7996C11.4568 9.08145 10.9823 9.06387 10.7004 8.76034L8.75 6.6599V15.25C8.75 15.6642 8.41421 16 8 16C7.58579 16 7.25 15.6642 7.25 15.25V6.65991L5.2996 8.76034C5.01775 9.06387 4.5432 9.08145 4.23966 8.7996C3.93613 8.51774 3.91856 8.04319 4.20041 7.73966L7.44832 4.24191C7.58538 4.09317 7.78181 4 8 4ZM13.2996 15.2397C13.0177 14.9361 12.5432 14.9186 12.2397 15.2004C11.9361 15.4823 11.9186 15.9568 12.2004 16.2603L15.4483 19.7581C15.5854 19.9068 15.7818 20 16 20C16.2175 20 16.4134 19.9074 16.5504 19.7594L19.7996 16.2603C20.0815 15.9568 20.0639 15.4823 19.7603 15.2004C19.4568 14.9186 18.9823 14.9361 18.7004 15.2397L16.75 17.3401V8.75C16.75 8.33579 16.4142 8 16 8C15.5858 8 15.25 8.33579 15.25 8.75V17.3401L13.2996 15.2397Z" />
</svg>
