<svg width="24" height="24" viewBox="0 0 24 24">
<path d="M15.265 4.20474C14.9638 3.92033 14.4892 3.93389 14.2047 4.23503C13.9203 4.53617 13.9339 5.01085 14.235 5.29526L17.3636 8.25H8.75C6.12665 8.25 4 10.3766 4 13V19.25C4 19.6642 4.33579 20 4.75 20C5.16421 20 5.5 19.6642 5.5 19.25V13C5.5 11.2051 6.95507 9.75 8.75 9.75H17.3636L14.235 12.7047C13.9339 12.9891 13.9203 13.4638 14.2047 13.765C14.4892 14.0661 14.9638 14.0797 15.265 13.7953L19.764 9.54617C19.9066 9.41195 19.9966 9.22255 19.9999 9.01209C20 9.00807 20 9.00403 20 9C20 8.99597 20 8.99193 19.9999 8.98791C19.9966 8.77745 19.9066 8.58805 19.764 8.45383L15.265 4.20474Z" fill="#000000" />
</svg>
